PathFileType	4	(X/Y/Z)	c:/Users/goper/Files/vsCode/490R/osim_files/C17/C17_Fast_06.trc
DataRate	CameraRate	NumFrames	NumMarkers	Units                	OrigDataRate	OrigDataStartFrame	OrigNumFrames
250.00	250.00	9	36	mm	250.0	815	2171
                Frame#	Time	LPSIS			LASIS			LTH1			LTH2			LTH3			LTH4			LLFE			LMFE			LSH1			LSH2			LSH3			LSH4			LLMAL			LMMAL			LCAL			LMTP5			LTOE			LMTP1			RPSIS			RASIS			RTH1			RTH2			RTH3			RTH4			RLFE			RMFE			RSH1			RSH2			RSH3			RSH4			RLMAL			RMMAL			RCAL			RMTP1			RTOE			RMTP5		
		X1	Y1	Z1	X2	Y2	Z2	X3	Y3	Z3	X4	Y4	Z4	X5	Y5	Z5	X6	Y6	Z6	X7	Y7	Z7	X8	Y8	Z8	X9	Y9	Z9	X10	Y10	Z10	X11	Y11	Z11	X12	Y12	Z12	X13	Y13	Z13	X14	Y14	Z14	X15	Y15	Z15	X16	Y16	Z16	X17	Y17	Z17	X18	Y18	Z18	X19	Y19	Z19	X20	Y20	Z20	X21	Y21	Z21	X22	Y22	Z22	X23	Y23	Z23	X24	Y24	Z24	X25	Y25	Z25	X26	Y26	Z26	X27	Y27	Z27	X28	Y28	Z28	X29	Y29	Z29	X30	Y30	Z30	X31	Y31	Z31	X32	Y32	Z32	X33	Y33	Z33	X34	Y34	Z34	X35	Y35	Z35	X36	Y36	Z36

815	3.25600	320.28461	1077.85303	260.86810	133.24884	1022.72833	360.99194	129.65402	690.78625	394.73444	105.28291	651.84558	392.88162	73.89763	716.90668	405.73096	58.06435	675.28064	403.04636	64.85971	510.57703	380.69159	42.94684	507.46783	253.06685	206.63814	334.18677	370.94656	240.51022	307.19882	364.38940	250.90898	379.33884	368.60132	277.76224	345.14670	364.59680	362.86627	225.63452	341.22726	340.08792	224.91168	254.29288	440.14380	248.17371	288.59503	319.83401	101.54223	360.32236	256.03790	83.85091	300.21161	280.49072	79.66647	250.94307	312.33710	1078.94458	187.22441	127.37543	1047.99255	95.54192	154.49593	750.11676	35.63155	148.09100	704.83771	43.28957	96.30593	756.89581	50.40110	95.21762	708.96863	52.74486	103.89785	486.26639	77.36395	123.68152	504.60220	200.41074	199.65045	296.50119	81.12186	200.84921	253.87755	96.74258	137.22957	291.02524	92.76801	148.48520	247.30629	104.80891	217.12532	90.78471	143.36667	190.74829	108.91257	231.57851	291.74359	56.73795	186.39238	55.75040	46.40347	235.69475	40.51319	66.52009	188.11845	93.49001	36.61741	117.64314
816	3.26000	313.47464	1079.11023	260.72504	126.52888	1024.19128	360.55478	119.35101	692.28168	395.06192	95.20064	654.00513	393.22034	65.09835	719.31873	405.80316	48.90748	677.44440	403.18661	53.41508	512.61603	380.58539	30.96778	510.28448	252.98376	191.68591	333.51578	370.63239	225.13136	305.78217	364.00711	237.06503	377.73734	368.07477	263.19336	343.05399	364.03436	345.82513	221.72499	340.51660	324.27271	221.92810	252.93845	423.51672	241.60321	287.86166	298.42188	99.27489	360.68665	234.64238	83.23302	300.82700	258.49887	78.01806	251.32578	305.32892	1080.18066	187.10451	120.66141	1049.54333	95.23425	150.30241	750.83826	35.18036	144.26651	705.30951	43.44984	92.22125	756.95837	50.49317	91.26107	708.82721	53.17252	102.54188	486.28531	77.69882	122.30965	504.71127	200.57455	198.90675	296.83804	81.50647	202.00185	254.90240	97.05493	136.41544	291.12967	92.96127	150.07578	245.63882	105.85980	216.84645	91.00439	143.51466	191.61476	109.08624	230.75122	291.50833	57.09526	186.50624	56.74836	44.45943	234.37367	40.39578	66.30870	188.21814	93.43504	36.63423	117.63074
817	3.26400	306.67361	1080.28760	260.57495	119.50284	1025.62854	360.26694	110.24968	694.34583	395.33078	85.19826	656.08661	393.62634	53.28544	721.59521	406.31882	38.13377	680.36926	403.71237	41.98974	514.60620	380.46933	19.55470	513.09979	252.90483	176.80521	332.72290	370.31897	209.59914	304.32404	363.68170	223.09721	376.02478	367.61969	248.26022	340.61584	363.64325	328.39844	217.58980	340.02878	307.47601	218.67715	252.30722	406.76144	234.89977	287.15680	277.28769	96.98294	360.97562	212.95241	82.72511	301.24927	236.73244	76.48405	251.65062	298.44489	1081.42200	187.04625	113.89101	1051.31531	94.94335	146.06841	751.51111	34.81645	140.52971	705.83008	43.50705	87.73589	756.80743	50.76320	87.26737	708.66925	53.77893	100.50903	485.96655	78.70292	121.14172	504.84460	200.90541	198.14903	297.15073	81.79332	201.28790	255.21352	97.35293	135.67050	291.31534	93.09865	149.35439	245.86557	106.03453	216.78040	91.38345	143.41695	191.35912	109.19285	230.91949	291.24307	57.41287	186.62186	56.59929	44.36184	234.42633	40.24670	66.08625	188.30138	93.40315	36.64214	117.64964
818	3.26800	299.90222	1081.41528	260.48727	112.55457	1026.84009	359.70932	100.40314	696.08435	395.80042	75.36602	658.16022	394.03726	42.78232	724.22858	406.63388	28.45351	682.97784	403.78552	30.81583	516.60681	380.33231	8.08935	515.76831	252.78673	162.00023	331.96396	370.03116	193.88652	302.61771	363.28360	209.14313	374.19598	367.10522	233.58754	338.35852	363.24957	310.86084	213.31680	339.65591	287.42004	213.50986	252.59207	389.89987	228.23328	286.50226	256.07388	94.57183	361.23523	191.12965	82.11834	301.52103	214.61163	74.88334	252.18463	291.46945	1082.54089	186.95520	107.42483	1052.79370	94.44027	141.80431	752.11664	34.61990	136.25832	706.00305	43.78509	83.49611	756.79883	50.88840	82.91768	708.19086	54.46598	99.55849	486.32718	78.39799	119.89496	504.91516	201.17122	197.17435	297.43768	81.99138	197.99281	254.26509	97.83057	135.15567	291.88254	92.69882	145.46648	248.44496	104.89427	216.47626	91.67268	143.53235	191.46370	109.47883	230.86874	290.98526	57.80334	186.71008	56.47464	44.27065	234.49030	39.89420	65.52785	188.93793	93.32873	36.66629	117.65338
819	3.27200	293.09378	1082.46277	260.35300	105.77557	1028.11328	359.24933	91.47737	697.97943	396.16028	65.74117	660.25818	394.43118	34.20203	727.07111	406.65833	18.98791	685.47400	403.87854	19.69460	518.46326	380.15509	-2.99315	518.31561	252.66931	147.14964	331.07870	369.77359	178.32314	300.96606	363.08444	195.16408	372.22833	366.66708	218.91402	335.85812	362.84039	293.27823	209.02350	339.39758	269.37524	210.10646	251.83495	372.59528	221.27026	286.01553	234.69948	92.20364	361.46338	169.27089	81.50920	301.90768	192.47194	73.36140	252.59146	284.54575	1083.58423	186.91429	100.74379	1053.44287	93.93524	137.52069	752.63641	34.67077	132.47443	706.40936	43.79338	78.90634	756.57062	51.27970	80.51892	709.34320	53.53716	98.03904	486.33383	78.77176	118.76924	505.01578	201.55635	196.29060	297.74435	82.22394	198.10033	255.22711	97.81404	133.74115	291.55698	93.55585	145.80527	247.77078	105.72326	216.20544	91.91605	143.67313	191.08711	109.68107	230.98491	290.80060	58.21086	186.77579	56.03718	44.31954	234.75951	39.94417	65.58382	188.77728	93.26914	36.67464	117.64899
820	3.27600	286.19583	1083.40015	260.31873	98.88165	1029.38220	358.97751	82.17469	699.68964	396.61591	56.27763	662.33490	394.83130	26.56116	729.82739	406.53830	9.22487	687.99115	403.36441	8.72199	520.31238	379.98254	-14.10320	520.77020	252.57625	132.25757	330.05020	369.61172	162.71364	299.29190	362.86545	181.12640	370.06876	366.16986	204.02203	333.23059	362.47299	275.22501	204.45047	339.12589	251.64397	205.97769	251.64070	355.02625	214.20119	285.62894	213.35081	89.77697	361.81870	147.81200	81.13776	302.12695	170.52736	72.29210	253.55397	277.61166	1084.58801	186.86555	93.86667	1054.20129	93.61309	133.22798	753.05194	35.04912	128.55476	706.84052	43.86089	74.52402	756.41199	51.53156	76.71185	709.33002	53.65845	96.48256	486.34045	79.13893	117.52533	505.03860	201.78572	195.18095	298.07822	82.47131	198.86928	256.18198	97.99832	132.83661	291.62921	93.75479	147.05652	246.17979	106.73548	215.93004	92.21930	143.78232	191.09802	109.84010	231.07890	290.62488	58.70591	186.80373	56.02248	44.13391	234.87520	39.77966	65.39342	188.84285	93.19657	36.67778	117.66153
821	3.28000	279.34738	1084.26990	260.22586	92.26282	1030.50049	358.44153	73.03902	701.39526	397.06693	46.77052	664.25360	395.27618	18.87628	732.20197	406.41998	-0.13643	690.38403	403.45328	-2.09034	522.03912	379.79547	-24.79959	523.35437	252.65540	117.27933	329.02145	369.45471	147.10512	297.49860	362.75537	167.08827	367.85159	365.80756	189.17453	330.46869	362.12131	257.35504	199.93988	338.94766	233.50768	201.87759	251.52081	337.21808	207.05556	285.33823	191.87036	87.25482	362.10577	125.89672	80.61450	302.63196	148.34746	71.14896	254.06265	270.66251	1085.44482	186.81291	87.06096	1054.58899	93.38196	128.93672	753.34460	35.83501	124.58738	707.18805	43.96006	71.53123	757.10498	50.84950	72.71432	709.06573	54.03971	94.79900	486.29688	79.51953	116.14388	505.03406	201.99277	194.32019	298.43253	82.65811	195.44717	255.30360	98.41961	131.78079	291.75323	93.93218	142.97154	249.12804	105.68748	215.66185	92.53890	143.84320	190.77438	110.02439	231.20872	290.47668	59.29045	186.81416	55.90602	43.97892	234.91251	39.58316	65.20763	188.88995	93.14304	36.68178	117.70033
822	3.28400	272.56003	1085.06226	260.17166	85.14005	1031.44263	358.04913	64.00945	702.97211	397.60126	37.37074	666.13428	395.73557	10.16399	733.89935	406.44949	-9.82177	692.69727	403.68356	-12.67253	523.77008	379.59607	-35.58249	525.53497	252.62018	102.52403	327.91629	368.75659	131.33707	295.62234	362.67801	153.37361	364.47668	366.41501	174.38078	327.68658	361.70486	239.01215	195.25073	338.80484	215.09952	197.70168	251.46274	319.35938	199.89862	285.03247	170.33032	84.76658	362.40237	104.11259	79.97795	303.10577	125.92921	69.80058	254.07697	263.77823	1086.24939	186.77472	80.40986	1055.02246	92.98264	124.64745	753.57159	36.72522	120.67102	707.53424	43.97330	67.23181	757.08521	50.88570	67.66474	707.84021	54.93292	93.09356	486.35956	79.88547	114.82835	505.10648	202.22255	193.17604	298.77316	82.83158	195.31081	256.24112	98.31503	130.99361	292.33707	93.55399	143.03304	248.25648	105.88643	215.37631	92.87975	143.87799	190.43896	110.18338	231.33398	290.25851	59.83203	186.84312	55.52700	44.09280	235.26830	39.22195	64.73460	189.14732	93.08131	36.68224	117.70159
823	3.28800	265.69482	1085.73999	260.13983	78.05988	1032.24719	357.79694	52.68028	703.84430	397.07947	28.14748	667.91199	396.24850	0.53538	735.27435	406.62299	-19.04740	694.93182	403.73160	-23.13478	525.37329	379.40173	-45.89331	527.61066	252.57208	87.56422	326.71011	368.73001	115.61578	293.75079	362.67786	139.27838	362.19769	366.14154	159.00662	324.54776	361.36526	220.66382	190.53462	338.72217	196.27455	193.21129	251.55644	300.98181	192.65671	284.85669	148.61902	82.21212	362.82175	82.32407	79.37111	303.66318	103.42157	68.28857	253.96049	256.95370	1087.00159	186.73077	73.55315	1055.34424	92.74972	120.25596	753.92529	36.65330	116.74396	707.86572	43.96497	62.72696	756.86346	51.05424	64.79758	708.75031	54.43936	90.76628	485.97870	80.97379	113.39095	505.10471	202.42651	192.16592	299.16119	82.98647	194.44841	256.68924	98.46088	129.62811	292.00381	94.27885	142.21957	248.56775	106.29436	214.81291	93.07150	144.07387	190.47601	110.63078	231.35579	289.14407	59.89199	187.04404	55.82097	43.68789	235.77127	39.19442	64.72853	188.97285	93.04404	36.67143	117.72564
